<svg width="138" height="37" viewBox="0 0 138 37" fill="none" xmlns="http://www.w3.org/2000/svg">
<g clip-path="url(#clip0_19_76)">
<path d="M19.314 10.5423H22.2634V15.2043H18.2357L17.1891 19.6443H20.1069V24.338H16.0791L14.9691 29.0634H10.3706L11.4806 24.338H7.89686L6.78686 29.0634H2.18829L3.29829 24.338H0.348857V19.6443H4.40829L5.45486 15.2043H2.50543V10.5423H6.56486L7.67486 5.75343H12.2734L11.1634 10.5423H14.7471L15.8571 5.75343H20.4557L19.314 10.5423ZM9.95829 15.0457L8.81657 19.8346H12.654L13.7957 15.0457H9.95829Z" fill="#0051FF"/>
<path d="M37.5886 15.0457L47.2614 29H40.2843L33.6243 19.2637L30.7066 22.4351V29H25.2834V5.78514H30.7066V15.9337L39.5549 5.78514H46.2466L37.5886 15.0457ZM47.6891 5.78514H67.0348V10.574H60.0576V29H54.6662V10.574H47.6891V5.78514ZM84.5418 16.9803C86.9521 17.9529 88.1572 19.7077 88.1572 22.2449C88.1572 24.3591 87.3644 26.0189 85.7787 27.224C84.193 28.408 82.0152 29 79.2455 29H69.541V5.78514H78.4527C80.9475 5.78514 82.9984 6.34543 84.6052 7.466C86.2121 8.58657 87.0155 10.2146 87.0155 12.35C87.0155 14.422 86.191 15.9654 84.5418 16.9803ZM74.8372 10.4471V15.014H78.0087C79.0447 15.014 79.8692 14.792 80.4824 14.348C81.0955 13.904 81.4021 13.312 81.4021 12.572C81.4021 11.8743 81.1061 11.3457 80.5141 10.9863C79.9221 10.6269 79.087 10.4471 78.0087 10.4471H74.8372ZM78.9284 24.3063C80.0701 24.3063 80.9581 24.1054 81.5924 23.7037C82.2267 23.2809 82.5438 22.6889 82.5438 21.9277C82.5438 21.1666 82.2161 20.5746 81.5607 20.1517C80.9264 19.7077 80.0384 19.4857 78.8967 19.4857H74.8372V24.3063H78.9284ZM96.2875 29H91.1181V4.86543H96.2875V29ZM99.149 20.786C99.149 19.0523 99.5401 17.53 100.322 16.2191C101.126 14.9083 102.194 13.904 103.526 13.2063C104.858 12.5086 106.285 12.1597 107.807 12.1597C109.329 12.1597 110.746 12.5086 112.057 13.2063C113.389 13.904 114.446 14.9083 115.228 16.2191C116.01 17.53 116.402 19.0523 116.402 20.786C116.402 22.5409 116.01 24.0737 115.228 25.3846C114.446 26.6743 113.399 27.668 112.088 28.3657C110.778 29.0634 109.35 29.4123 107.807 29.4123C106.264 29.4123 104.826 29.0634 103.494 28.3657C102.183 27.668 101.126 26.6743 100.322 25.3846C99.5401 24.0737 99.149 22.5409 99.149 20.786ZM104.477 20.786C104.477 22.0757 104.784 23.1011 105.397 23.8623C106.031 24.6023 106.824 24.9723 107.775 24.9723C108.706 24.9723 109.477 24.6023 110.09 23.8623C110.725 23.1011 111.042 22.0757 111.042 20.786C111.042 19.4963 110.725 18.4709 110.09 17.7097C109.477 16.9486 108.706 16.568 107.775 16.568C106.824 16.568 106.031 16.9486 105.397 17.7097C104.784 18.4709 104.477 19.4963 104.477 20.786ZM135.794 12.6037V27.0337C135.794 30.4166 134.916 32.8797 133.162 34.4231C131.428 35.9666 129.24 36.7383 126.597 36.7383C124.715 36.7383 123.076 36.3366 121.681 35.5331C120.286 34.7509 119.281 33.6726 118.668 32.2983L122.569 30.0149C123.372 31.5371 124.715 32.2983 126.597 32.2983C128.077 32.2983 129.102 31.8966 129.673 31.0931C130.244 30.2897 130.561 29.0211 130.624 27.2874C129.546 28.704 128.045 29.4123 126.121 29.4123C124.747 29.4123 123.468 29.074 122.284 28.3974C121.1 27.6997 120.148 26.706 119.429 25.4163C118.71 24.1054 118.351 22.562 118.351 20.786C118.351 19.01 118.71 17.4666 119.429 16.1557C120.148 14.8449 121.1 13.8511 122.284 13.1746C123.468 12.498 124.747 12.1597 126.121 12.1597C128.278 12.1597 129.895 13.0477 130.973 14.8237C131.079 14.274 131.153 13.534 131.195 12.6037H135.794ZM127.136 25.0674C128.108 25.0674 128.933 24.6974 129.61 23.9574C130.286 23.2174 130.624 22.1603 130.624 20.786C130.624 19.4329 130.286 18.418 129.61 17.7414C128.954 17.0437 128.13 16.6949 127.136 16.6949C126.1 16.6949 125.265 17.0649 124.63 17.8049C123.996 18.5237 123.679 19.5174 123.679 20.786C123.679 22.0757 123.996 23.1117 124.63 23.894C125.265 24.6763 126.1 25.0674 127.136 25.0674Z" fill="black"/>
</g>
<defs>
<clipPath id="clip0_19_76">
<rect width="138" height="37" fill="white"/>
</clipPath>
</defs>
</svg>
